<svg width="23" height="17" viewBox="0 0 23 17" fill="none" xmlns="http://www.w3.org/2000/svg">
<path fill-rule="evenodd" clip-rule="evenodd" d="M1.83243e-05 7.97973C0.00111857 7.43894 0.439236 7.00083 0.980018 6.99973L21.02 6.99973C21.564 6.99973 22.005 7.44073 22.005 7.98473C22.005 8.52873 21.564 8.96973 21.02 8.96973L0.980018 8.96973C0.718696 8.96867 0.468528 8.86371 0.284684 8.67799C0.10084 8.49227 -0.00157724 8.24105 1.83243e-05 7.97973Z" fill="white"/>
<path fill-rule="evenodd" clip-rule="evenodd" d="M14.69 0.279744L21.69 7.25974C22.0777 7.64978 22.0777 8.27971 21.69 8.66974C21.5056 8.86152 21.2511 8.96991 20.985 8.96991C20.719 8.96991 20.4644 8.86152 20.28 8.66974L13.28 1.68974C12.9402 1.29298 12.9631 0.70155 13.3324 0.33218C13.7018 -0.0371895 14.2933 -0.0600329 14.69 0.279744Z" fill="white"/>
<path fill-rule="evenodd" clip-rule="evenodd" d="M14.6902 15.6897L21.6902 8.70973C22.0802 8.31672 22.0802 7.68274 21.6902 7.28973C21.3002 6.90201 20.6703 6.90201 20.2802 7.28973L13.2802 14.2797C12.9949 14.5241 12.8706 14.9078 12.9584 15.2732C13.0463 15.6385 13.3315 15.9237 13.6968 16.0115C14.0621 16.0994 14.4458 15.9751 14.6902 15.6897Z" fill="white"/>
</svg>
