<svg width="23" height="17" viewBox="0 0 23 17" fill="none" xmlns="http://www.w3.org/2000/svg">
<path fill-rule="evenodd" clip-rule="evenodd" d="M1.83247e-05 9.01976C-0.00157727 8.75844 0.10084 8.50722 0.284684 8.3215C0.468528 8.13578 0.718696 8.03081 0.980018 8.02976L21.02 8.02975C21.564 8.02975 22.005 8.47075 22.005 9.01475C22.005 9.55876 21.564 9.99975 21.02 9.99975L0.980018 9.99976C0.439236 9.99866 0.00111862 9.56054 1.83247e-05 9.01976Z" fill="white"/>
<path fill-rule="evenodd" clip-rule="evenodd" d="M7.31012 16.7197L0.310116 9.73974C0.0582436 9.48609 -0.0391707 9.11732 0.0545679 8.77237C0.148307 8.42741 0.418957 8.15866 0.764568 8.06737C1.11018 7.97607 1.47824 8.07609 1.73012 8.32975L8.72012 15.3097C9.05989 15.7065 9.03705 16.2979 8.66768 16.6673C8.29831 17.0367 7.70688 17.0595 7.31012 16.7197Z" fill="white"/>
<path fill-rule="evenodd" clip-rule="evenodd" d="M7.3102 1.30975L0.310205 8.28975C-0.0819173 8.68188 -0.0819172 9.31763 0.310205 9.70975C0.702327 10.1019 1.33808 10.1019 1.7302 9.70975L8.7202 2.71975C9.00558 2.47536 9.12989 2.09163 9.04201 1.72633C8.95414 1.36103 8.66892 1.07581 8.30362 0.987943C7.93832 0.900072 7.55459 1.02438 7.3102 1.30975Z" fill="white"/>
</svg>
