<svg width="82" height="30" viewBox="0 0 82 30" fill="none" xmlns="http://www.w3.org/2000/svg">
<path d="M74.498 6.69825C75.614 6.69825 76.518 5.80025 76.518 4.68225V2.57225C76.518 1.45325 75.615 0.552246 74.498 0.552246C73.381 0.552246 72.479 1.45225 72.479 2.57225V4.68325C72.48 5.80025 73.382 6.69825 74.498 6.69825Z" fill="white"/>
<path d="M81.674 4.04612H77.608V5.07312C77.608 6.76812 76.231 8.14912 74.533 8.14912C72.833 8.14912 71.459 6.76812 71.459 5.07312V4.04612H63.254V5.07312C63.254 6.76812 61.875 8.14912 60.178 8.14912C58.481 8.14912 57.103 6.76912 57.103 5.07312V4.04612L53 3.99512V29.6731H55.052H79.656L81.705 29.6671L81.674 4.04612ZM79.654 27.6281H55.052V11.2241H79.656V27.6281H79.654Z" fill="white"/>
<path d="M60.1459 6.69825C61.2619 6.69825 62.1669 5.80025 62.1669 4.68225V2.57225C62.1669 1.45225 61.2619 0.552246 60.1459 0.552246C59.0299 0.552246 58.1279 1.45225 58.1279 2.57225V4.68325C58.1279 5.80025 59.0289 6.69825 60.1459 6.69825Z" fill="white"/>
<path d="M66.491 13.4253H63.26V16.2773H66.491V13.4253Z" fill="white"/>
<path d="M71.7179 13.4253H68.4839V16.2773H71.7179V13.4253Z" fill="white"/>
<path d="M76.5601 13.4253H73.3291V16.2773H76.5601V13.4253Z" fill="white"/>
<path d="M66.491 18.1611H63.26V21.0111H66.491V18.1611Z" fill="white"/>
<path d="M71.7179 18.1611H68.4839V21.0111H71.7179V18.1611Z" fill="white"/>
<path d="M76.5601 18.1611H73.3291V21.0111H76.5601V18.1611Z" fill="white"/>
<path d="M66.491 22.9912H63.26V25.8412H66.491V22.9912Z" fill="white"/>
<path d="M61.3569 18.1611H58.1279V21.0111H61.3569V18.1611Z" fill="white"/>
<path d="M61.3569 22.9912H58.1279V25.8412H61.3569V22.9912Z" fill="white"/>
<path d="M71.7179 22.9912H68.4839V25.8412H71.7179V22.9912Z" fill="white"/>
<path d="M76.5601 22.9912H73.3291V25.8412H76.5601V22.9912Z" fill="white"/>
<path fill-rule="evenodd" clip-rule="evenodd" d="M34.8179 9.55225L41.456 16.1903L34.8179 22.8283L33.8704 21.8808L39.5608 16.1903L33.8704 10.4998L34.8179 9.55225Z" fill="white"/>
<path fill-rule="evenodd" clip-rule="evenodd" d="M40.5082 16.8601L0.000244023 16.8601L0.000244141 15.52L40.5082 15.52L40.5082 16.8601Z" fill="white"/>
</svg>
