<svg width="20" height="20" viewBox="0 0 20 20" fill="none" xmlns="http://www.w3.org/2000/svg">
<path d="M0.471916 9.74863C0.472042 9.74863 0.472167 9.74863 0.472293 9.74863L1.73056 9.74768C1.99115 9.74749 2.20222 9.5361 2.20204 9.27552C2.2009 7.70897 2.70509 6.22151 3.66005 4.97406C5.00886 3.21205 7.06052 2.20147 9.28886 2.20147C10.8546 2.20147 12.3392 2.70452 13.5824 3.65621C13.9945 3.97166 14.3644 4.32404 14.6913 4.71027L12.3678 4.30007C12.2447 4.2783 12.1178 4.30642 12.0151 4.37815C11.9126 4.44993 11.8428 4.55946 11.8211 4.68271L11.6023 5.92179C11.557 6.17841 11.7283 6.42315 11.9849 6.46844L17.5609 7.45285C17.5882 7.4577 17.6156 7.46002 17.6429 7.46002C17.7391 7.46002 17.8336 7.43064 17.9135 7.37478C18.0161 7.30299 18.0859 7.19346 18.1076 7.07021L19.092 1.49419C19.1373 1.23757 18.966 0.992837 18.7094 0.947539L17.4703 0.728789C17.2132 0.683303 16.969 0.854805 16.9237 1.11143L16.5094 3.4581C16.0446 2.88169 15.5109 2.35944 14.9209 1.90779C13.2905 0.65971 11.3435 0 9.29037 0C6.3698 0 3.68031 1.32515 1.91156 3.63558C0.659587 5.27101 -0.00138193 7.22183 2.1693e-06 9.27715C6.50827e-05 9.40229 0.0498925 9.52226 0.138412 9.61072C0.226931 9.69905 0.346844 9.74863 0.471916 9.74863Z" fill="#111111"/>
<path d="M18.9703 9.57107C18.8819 9.48274 18.7619 9.43311 18.6369 9.43311C18.6368 9.43311 18.6366 9.43311 18.6365 9.43311L17.3782 9.43405C17.1177 9.43424 16.9066 9.64563 16.9068 9.90621C16.9079 11.4728 16.4037 12.9602 15.4488 14.2077C14.0999 15.9697 12.0482 16.9803 9.81989 16.9803C8.25423 16.9803 6.7696 16.4772 5.52636 15.5255C5.11434 15.2101 4.74441 14.8577 4.41752 14.4715L6.74103 14.8817C6.86441 14.9035 6.99112 14.8754 7.0936 14.8036C7.19615 14.7318 7.26592 14.6223 7.28769 14.499L7.50638 13.2599C7.55167 13.0033 7.38036 12.7586 7.12374 12.7133L1.54778 11.7289C1.42472 11.7072 1.29776 11.7352 1.19522 11.807C1.09267 11.8787 1.0229 11.9883 1.00113 12.1115L0.0167837 17.6875C-0.028514 17.9442 0.142799 18.1889 0.399423 18.2342L1.6385 18.4529C1.66625 18.4578 1.69387 18.4602 1.72111 18.4602C1.94571 18.4602 2.14477 18.2992 2.18522 18.0703L2.59951 15.7236C3.06425 16.3 3.59794 16.8223 4.18794 17.2739C5.81822 18.522 7.7652 19.1817 9.81845 19.1817C12.7391 19.1817 15.4285 17.8566 17.1972 15.5462C18.4492 13.9107 19.1101 11.9599 19.1087 9.90458C19.1087 9.77951 19.0589 9.65953 18.9703 9.57107Z" fill="#111111"/>
</svg>
