<svg width="26" height="21" viewBox="0 0 26 21" fill="none" xmlns="http://www.w3.org/2000/svg">
<path fill-rule="evenodd" clip-rule="evenodd" d="M22.826 0.397316H3.17939C1.42561 0.397316 0 1.83832 0 3.61102V17.1836C0 18.9563 1.42561 20.3973 3.17939 20.3973H22.8206C24.5744 20.3973 26 18.9563 26 17.1836V3.61646C26.0054 1.84375 24.5797 0.397316 22.826 0.397316ZM22.7477 4.64358L16.3918 10.2299L22.7746 16.1694C23.065 16.4382 23.0757 16.8914 22.8015 17.176C22.6563 17.3235 22.4681 17.3973 22.2745 17.3973C22.0971 17.3973 21.9142 17.3341 21.7744 17.2023L15.311 11.1838L13.4989 12.7754C13.3645 12.8966 13.187 12.9599 13.0149 12.9599C12.8429 12.9599 12.6708 12.9019 12.531 12.7807L10.7673 11.2365L4.26621 17.1971C4.1264 17.3235 3.94895 17.3868 3.7715 17.3868C3.57792 17.3868 3.38434 17.3077 3.23916 17.1602C2.96492 16.8703 2.98105 16.4223 3.27142 16.1536L9.67569 10.2774L3.24454 4.64358C2.94341 4.38007 2.91653 3.93211 3.18539 3.63698C3.45425 3.34185 3.91131 3.3155 4.21244 3.57901L11.1706 9.68183C11.2136 9.71345 11.2512 9.74507 11.2889 9.78197C11.2889 9.78724 11.2942 9.79251 11.2996 9.79778L13.0096 11.2945L21.7744 3.58428C22.0756 3.32077 22.5326 3.34712 22.8015 3.63698C23.0703 3.93211 23.0435 4.38007 22.7477 4.64358Z" fill="white"/>
</svg>
