<svg width="19" height="20" viewBox="0 0 19 20" fill="none" xmlns="http://www.w3.org/2000/svg">
<path d="M0.00605094 9.01133C-0.100179 7.50382 1.20763 6.47026 2.72318 5.55471C2.81447 5.49228 2.92054 5.44547 3.03496 5.41712C3.14937 5.38877 3.26975 5.37947 3.38876 5.3898C3.50777 5.40012 3.62294 5.42985 3.72725 5.47718C3.83157 5.52451 3.92287 5.58845 3.99558 5.66511C4.07951 5.73359 4.14564 5.8149 4.19009 5.90426C4.23454 5.99361 4.25641 6.08923 4.25443 6.18549C4.25246 6.28176 4.22666 6.37673 4.17856 6.46486C4.13047 6.55298 4.06103 6.63247 3.97434 6.69867C3.58011 7.0489 3.10089 7.33632 2.69722 7.67894C1.66324 8.55642 1.58534 9.77271 2.48476 10.6064C3.42902 11.4801 4.81002 11.5962 6.05645 10.8158C7.73017 9.76509 9.3425 8.65159 10.9926 7.57996C13.2423 6.11622 15.7919 6.20759 17.4915 7.80076C19.1912 9.39392 18.9363 11.64 16.9415 13.1741C16.6098 13.4441 16.2505 13.6912 15.8674 13.9127C15.3953 14.1677 14.9019 14.1906 14.5006 13.8023C14.1299 13.4444 14.2385 13.0847 14.6021 12.7801C15.0105 12.4375 15.4802 12.1444 15.8816 11.7979C16.3548 11.4107 16.631 10.8945 16.6554 10.3511C16.6799 9.8078 16.451 9.27679 16.0138 8.86287C15.06 7.98729 13.6979 7.89783 12.4468 8.69156C10.6904 9.81268 8.9766 10.9852 7.23443 12.1177C5.7472 13.0694 4.09237 13.2598 2.39269 12.5612C0.733137 11.8703 -0.0104738 10.7035 0.00605094 9.01133Z" fill="white"/>
<path d="M10.3271 1.29485C9.69683 2.94702 9.11611 4.62203 8.39846 6.25708C8.13643 6.85285 7.39046 7.01845 6.76724 6.53498C5.34376 5.45573 3.94152 4.33271 2.60302 3.17162C2.00105 2.64628 2.21587 2.04289 3.05155 1.81448C5.01563 1.27645 7.00016 0.789169 9.00516 0.35265C9.82195 0.177535 10.169 0.662909 10.3271 1.29485Z" fill="white"/>
<path d="M13.8775 16.4138C13.8633 17.8832 12.1754 19.2175 10.3766 19.1813C8.5329 19.1433 6.92292 17.7956 6.97486 16.3262C7.02679 14.8568 8.64149 13.6214 10.4167 13.6138C12.2368 13.6062 13.894 14.9481 13.8775 16.4138Z" fill="white"/>
</svg>
