<svg width="35" height="28" viewBox="0 0 35 28" fill="none" xmlns="http://www.w3.org/2000/svg">
<path fill-rule="evenodd" clip-rule="evenodd" d="M29.947 0.828125H4.17127C1.87037 0.828125 0 2.71868 0 5.04441V22.8513C0 25.177 1.87037 27.0676 4.17127 27.0676H29.94C32.2409 27.0676 34.1113 25.177 34.1113 22.8513V5.05155C34.1183 2.72581 32.2479 0.828125 29.947 0.828125ZM29.8446 6.39869L21.5058 13.7278L29.8798 21.5202C30.2608 21.8728 30.2749 22.4675 29.9151 22.8408C29.7246 23.0344 29.4777 23.1312 29.2237 23.1312C28.9909 23.1312 28.7511 23.0483 28.5676 22.8754L20.0878 14.9793L17.7104 17.0674C17.534 17.2264 17.3012 17.3094 17.0754 17.3094C16.8497 17.3094 16.6239 17.2334 16.4405 17.0743L14.1265 15.0484L5.59734 22.8685C5.41391 23.0344 5.18111 23.1174 4.9483 23.1174C4.69433 23.1174 4.44036 23.0137 4.24988 22.8201C3.89008 22.4398 3.91125 21.8521 4.29221 21.4995L12.6944 13.7901L4.25693 6.39869C3.86186 6.05297 3.82659 5.46526 4.17933 5.07806C4.53207 4.69086 5.13172 4.65629 5.52679 5.002L14.6557 13.0087C14.7121 13.0502 14.7615 13.0917 14.8109 13.1401C14.8109 13.147 14.8179 13.1539 14.825 13.1609L17.0684 15.1245L28.5676 5.00892C28.9627 4.6632 29.5624 4.69778 29.9151 5.07806C30.2678 5.46526 30.2326 6.05297 29.8446 6.39869Z" fill="#111111"/>
</svg>
