<svg width="27" height="34" viewBox="0 0 27 34" fill="none" xmlns="http://www.w3.org/2000/svg">
<path fill-rule="evenodd" clip-rule="evenodd" d="M13.1251 0.828125C6.02432 0.828125 0.247559 6.20841 0.247559 12.8218C0.247559 15.8599 2.3029 20.1524 6.35674 25.5801C9.31978 29.5477 12.234 32.618 12.3568 32.7468L13.1251 33.5538L13.8937 32.7468C14.0162 32.618 16.9305 29.5477 19.8938 25.5801C23.9473 20.1524 26.0029 15.8599 26.0029 12.8218C26.0029 6.20841 20.2259 0.828125 13.1251 0.828125ZM6.8079 12.6355C6.8079 16.2527 9.7507 19.1955 13.3676 19.1955C16.9848 19.1955 19.9276 16.2527 19.9276 12.6355C19.9276 9.01859 16.9848 6.07579 13.3676 6.07579C9.7507 6.07579 6.8079 9.01859 6.8079 12.6355Z" fill="#111111"/>
</svg>
