<svg width="90" height="90" viewBox="0 0 90 90" fill="none" xmlns="http://www.w3.org/2000/svg">
<path d="M45 13.1836C40.6384 13.1836 37.0898 16.7322 37.0898 21.0938C37.0898 25.4553 40.6384 29.0039 45 29.0039C49.3616 29.0039 52.9102 25.4553 52.9102 21.0938C52.9102 16.7322 49.3616 13.1836 45 13.1836Z" fill="white"/>
<path d="M45 0C33.3689 0 23.9062 9.46266 23.9062 21.0938C23.9062 25.0825 25.0262 28.9682 27.1458 32.3307L45 60.8203L62.8542 32.3307C64.9738 28.9682 66.0938 25.0825 66.0938 21.0938C66.0938 9.46266 56.6311 0 45 0ZM45 34.2773C37.7312 34.2773 31.8164 28.3626 31.8164 21.0938C31.8164 13.8249 37.7312 7.91016 45 7.91016C52.2688 7.91016 58.1836 13.8249 58.1836 21.0938C58.1836 28.3626 52.2688 34.2773 45 34.2773Z" fill="white"/>
<path d="M32.1675 90H57.824L55.7963 74.0039H34.1443L32.1675 90Z" fill="white"/>
<path d="M34.8032 68.7305H43.753L36.2843 56.8851L34.8032 68.7305Z" fill="white"/>
<path d="M60.4387 68.7305H81.2118L74.62 52.9102H58.4097L60.4387 68.7305Z" fill="white"/>
<path d="M8.78857 68.7305H29.4896L31.4671 52.9102H15.3804L8.78857 68.7305Z" fill="white"/>
<path d="M46.2471 68.7304H55.1199L53.621 57.0369L46.2471 68.7304Z" fill="white"/>
<path d="M28.8302 74.0039H6.59111L0 90H26.8533L28.8302 74.0039Z" fill="white"/>
<path d="M83.409 74.0039H61.1143L63.1426 90H90.0001L83.409 74.0039Z" fill="white"/>
</svg>
