<svg width="35" height="35" viewBox="0 0 35 35" fill="none" xmlns="http://www.w3.org/2000/svg">
<path d="M25.9334 23.3934C24.8189 22.2932 23.4277 22.2932 22.3204 23.3934C21.4757 24.231 20.631 25.0686 19.8005 25.9204C19.5733 26.1546 19.3817 26.2043 19.1048 26.0482C18.5583 25.75 17.9762 25.5087 17.4509 25.1822C15.002 23.6419 12.9506 21.6614 11.1335 19.4326C10.232 18.3253 9.42991 17.1399 8.86915 15.8054C8.75558 15.5357 8.77687 15.3582 8.99692 15.1382C9.84161 14.3219 10.665 13.4843 11.4955 12.6467C12.6525 11.4826 12.6525 10.1197 11.4884 8.94848C10.8283 8.28124 10.1681 7.6282 9.50799 6.96096C8.82656 6.27953 8.15223 5.591 7.4637 4.91667C6.34927 3.83063 4.95801 3.83063 3.85068 4.92377C2.99889 5.76136 2.18259 6.62025 1.3166 7.44365C0.5145 8.20316 0.1099 9.13303 0.0247206 10.2191C-0.110146 11.9865 0.322847 13.6546 0.933298 15.2801C2.18259 18.6447 4.08492 21.6331 6.39186 24.373C9.50799 28.0783 13.2275 31.0098 17.5787 33.1251C19.5378 34.0763 21.5679 34.8074 23.7755 34.9281C25.2945 35.0133 26.6148 34.63 27.6724 33.4446C28.3965 32.6353 29.2128 31.8971 29.9794 31.1234C31.1151 29.9735 31.1222 28.5822 29.9936 27.4465C28.6449 26.0908 27.2891 24.7421 25.9334 23.3934Z" fill="#111111"/>
<path d="M24.5778 17.7358L27.1971 17.2886C26.7854 14.8823 25.6496 12.7031 23.9248 10.9712C22.1005 9.14692 19.7936 7.997 17.2524 7.64209L16.8833 10.2755C18.8495 10.5524 20.6383 11.4397 22.0508 12.8522C23.3853 14.1867 24.2584 15.8761 24.5778 17.7358Z" fill="#111111"/>
<path d="M28.6738 6.35057C25.65 3.32671 21.824 1.41728 17.6006 0.828125L17.2314 3.46158C20.88 3.97265 24.1877 5.62655 26.7999 8.23161C29.2772 10.7089 30.9027 13.8392 31.4919 17.2819L34.1111 16.8347C33.4226 12.8455 31.5415 9.22537 28.6738 6.35057Z" fill="#111111"/>
</svg>
