<svg width="26" height="27" viewBox="0 0 26 27" fill="none" xmlns="http://www.w3.org/2000/svg">
<path d="M19.7667 17.5968C18.9173 16.7582 17.8568 16.7582 17.0128 17.5968C16.369 18.2352 15.7252 18.8736 15.0921 19.5229C14.919 19.7014 14.7729 19.7393 14.5619 19.6202C14.1453 19.393 13.7017 19.2091 13.3013 18.9602C11.4347 17.7861 9.87113 16.2766 8.48608 14.5778C7.79896 13.7338 7.18759 12.8302 6.76017 11.8131C6.6736 11.6075 6.68983 11.4722 6.85755 11.3045C7.50139 10.6823 8.12899 10.0439 8.762 9.40547C9.6439 8.51817 9.6439 7.47938 8.75659 6.58667C8.25343 6.07809 7.75026 5.58034 7.2471 5.07176C6.7277 4.55237 6.21372 4.02756 5.68891 3.51357C4.83948 2.68579 3.77905 2.68579 2.93503 3.51899C2.28579 4.15741 1.6636 4.81206 1.00353 5.43967C0.392158 6.01858 0.0837668 6.72733 0.0188423 7.55512C-0.0839548 8.9023 0.246078 10.1737 0.71137 11.4127C1.6636 13.9772 3.11358 16.255 4.87195 18.3434C7.2471 21.1676 10.0821 23.4021 13.3987 25.0144C14.892 25.7394 16.4393 26.2966 18.122 26.3886C19.2798 26.4535 20.2861 26.1614 21.0922 25.2578C21.6441 24.6411 22.2663 24.0784 22.8506 23.4887C23.7163 22.6122 23.7217 21.5517 22.8614 20.6861C21.8335 19.6527 20.8001 18.6247 19.7667 17.5968Z" fill="white"/>
<path d="M18.7335 13.2847L20.7299 12.9439C20.4161 11.1097 19.5505 9.44876 18.2357 8.12863C16.8453 6.73816 15.0869 5.86168 13.15 5.59116L12.8687 7.59841C14.3673 7.80942 15.7307 8.48571 16.8074 9.56238C17.8246 10.5795 18.49 11.8672 18.7335 13.2847Z" fill="white"/>
<path d="M21.8558 4.60659C19.551 2.30177 16.6348 0.846377 13.4156 0.397316L13.1343 2.40456C15.9152 2.79411 18.4364 4.05473 20.4275 6.04034C22.3157 7.92856 23.5547 10.3145 24.0037 12.9386L26.0002 12.5977C25.4753 9.55708 24.0416 6.79779 21.8558 4.60659Z" fill="white"/>
</svg>
