<svg width="18" height="23" viewBox="0 0 18 23" fill="none" xmlns="http://www.w3.org/2000/svg">
<path d="M17.5518 21.3748L13.792 16.208H14.2926C14.4124 16.2076 14.5297 16.1754 14.6319 16.1147C14.7342 16.054 14.8174 15.9672 14.8726 15.8638C14.9278 15.7603 14.9528 15.6441 14.945 15.5278C14.9372 15.4115 14.8969 15.2994 14.8283 15.2039L11.7093 10.9193H11.7644C11.88 10.9171 11.993 10.885 12.0916 10.8261C12.1903 10.7673 12.271 10.684 12.3256 10.5847C12.3802 10.4854 12.4065 10.3737 12.4021 10.2612C12.3976 10.1486 12.3624 10.0393 12.3001 9.94443L9.35129 5.89871C9.29483 5.81936 9.22023 5.75385 9.13336 5.70733C9.04649 5.66081 8.94971 5.63455 8.85065 5.63062C8.74608 5.63156 8.64318 5.65629 8.55017 5.70284C8.45716 5.74939 8.37662 5.81646 8.31497 5.89871L5.38622 9.92493C5.32242 10.0191 5.28584 10.1283 5.2803 10.241C5.27476 10.3537 5.30048 10.4658 5.35475 10.5655C5.40903 10.6652 5.48986 10.7489 5.58876 10.8077C5.68767 10.8665 5.80101 10.8983 5.9169 10.8998H5.97697L2.84296 15.2039C2.77253 15.299 2.7306 15.4113 2.72185 15.5283C2.71309 15.6453 2.73786 15.7624 2.79339 15.8664C2.84892 15.9705 2.93303 16.0576 3.03637 16.1179C3.1397 16.1782 3.25819 16.2094 3.37865 16.208H3.87929L0.119479 21.3748C0.0504554 21.4713 0.00968111 21.5842 0.00152174 21.7015C-0.00663764 21.8189 0.0181252 21.9361 0.073159 22.0408C0.128193 22.1454 0.211426 22.2336 0.313946 22.2957C0.416467 22.3578 0.534416 22.3917 0.655165 22.3936H17.0161C17.1369 22.3917 17.2548 22.3578 17.3573 22.2957C17.4598 22.2336 17.5431 22.1454 17.5981 22.0408C17.6531 21.9361 17.6779 21.8189 17.6697 21.7015C17.6616 21.5842 17.6208 21.4713 17.5518 21.3748Z" fill="white"/>
<path d="M7.38863 3.14458L7.11829 4.65567C7.11207 4.6941 7.1167 4.73346 7.13169 4.76952C7.14669 4.80558 7.17147 4.837 7.2034 4.8604C7.23728 4.88066 7.27627 4.89138 7.31604 4.89138C7.35581 4.89138 7.3948 4.88066 7.42868 4.8604L8.8505 4.16335L10.2423 4.87502C10.2762 4.89528 10.3152 4.90601 10.3549 4.90601C10.3947 4.90601 10.4337 4.89528 10.4676 4.87502C10.4995 4.85179 10.5239 4.82021 10.5381 4.78397C10.5523 4.74772 10.5556 4.7083 10.5477 4.67029L10.2823 3.15921L11.4188 2.08682C11.4471 2.05931 11.4672 2.02481 11.4769 1.98702C11.4866 1.94924 11.4855 1.90959 11.4738 1.87234C11.4602 1.83576 11.4367 1.80338 11.4059 1.77854C11.3751 1.7537 11.3381 1.73728 11.2986 1.73098L9.73162 1.51163L9.02572 0.117531C9.00873 0.082386 8.98182 0.0526733 8.94813 0.0318621C8.91445 0.0110508 8.87537 0 8.83548 0C8.79558 0 8.75651 0.0110508 8.72283 0.0318621C8.68914 0.0526733 8.66223 0.082386 8.64524 0.117531L7.93934 1.49701L6.37233 1.71636C6.33268 1.72216 6.2954 1.73839 6.26452 1.7633C6.23364 1.78821 6.21034 1.82086 6.19711 1.85772C6.18542 1.89497 6.18438 1.93461 6.19408 1.9724C6.20378 2.01018 6.22386 2.04468 6.25218 2.0722L7.38863 3.14458Z" fill="white"/>
</svg>
