<svg width="27" height="27" viewBox="0 0 27 27" fill="none" xmlns="http://www.w3.org/2000/svg">
<path d="M26.0823 8.39233e-05H0V26.0823H26.0823V8.39233e-05Z" fill="#7D3DAF"/>
<path d="M21.2902 8.40749L21.285 8.38688C20.8684 6.70255 18.99 4.89518 17.2651 4.51916L17.2456 4.51516C14.4556 3.9829 11.6266 3.9829 8.83713 4.51516L8.8171 4.51916C7.09271 4.89518 5.21436 6.70255 4.79714 8.38688L4.79256 8.40749C4.27748 10.7597 4.27748 13.1451 4.79256 15.4973L4.79714 15.518C5.19656 17.1304 6.93503 18.8547 8.59561 19.329V21.2091C8.59561 21.8896 9.4249 22.2238 9.89649 21.7328L11.8014 19.7526C12.2146 19.7758 12.628 19.7886 13.0414 19.7886C14.4458 19.7886 15.8509 19.6559 17.2456 19.3897L17.2651 19.3857C18.99 19.0097 20.8684 17.2023 21.285 15.518L21.2902 15.4974C21.8053 13.1451 21.8053 10.7597 21.2902 8.40749ZM19.7827 15.1562C19.5045 16.2551 18.0783 17.6212 16.9451 17.8736C15.4616 18.1557 13.9664 18.2763 12.4727 18.2349C12.443 18.2341 12.4144 18.2456 12.3937 18.2669C12.1817 18.4845 11.0028 19.6947 11.0028 19.6947L9.52334 21.2131C9.41517 21.3258 9.22516 21.2491 9.22516 21.0935V17.9788C9.22516 17.9273 9.18842 17.8836 9.13788 17.8737C9.13759 17.8737 9.13731 17.8736 9.13702 17.8735C8.00383 17.6212 6.57819 16.255 6.29947 15.1562C5.8359 13.03 5.8359 10.8747 6.29947 8.74853C6.57819 7.64968 8.00383 6.28356 9.13702 6.03117C11.7279 5.5384 14.3548 5.5384 16.9451 6.03117C18.0789 6.28356 19.5045 7.64968 19.7827 8.74853C20.2468 10.8747 20.2468 13.0301 19.7827 15.1562Z" fill="white"/>
<path d="M15.5062 16.594C15.332 16.5411 15.166 16.5055 15.0118 16.4416C13.4141 15.7787 11.9437 14.9236 10.779 13.6127C10.1167 12.8672 9.59826 12.0256 9.16003 11.135C8.95223 10.7126 8.7771 10.2737 8.59859 9.83766C8.43582 9.44001 8.67557 9.0292 8.92802 8.7296C9.1649 8.44842 9.46971 8.23323 9.79983 8.07464C10.0575 7.95084 10.3117 8.02221 10.4998 8.24061C10.9066 8.71277 11.2803 9.20908 11.5829 9.75639C11.7689 10.093 11.7179 10.5045 11.3807 10.7336C11.2987 10.7893 11.224 10.8547 11.1477 10.9176C11.0807 10.9727 11.0177 11.0284 10.9718 11.103C10.8879 11.2395 10.8839 11.4006 10.9379 11.5491C11.3538 12.6919 12.0547 13.5805 13.2049 14.0591C13.389 14.1357 13.5739 14.2249 13.7859 14.2001C14.141 14.1587 14.256 13.7691 14.5048 13.5656C14.7481 13.3667 15.0589 13.3641 15.3209 13.5299C15.583 13.6958 15.837 13.8738 16.0895 14.0537C16.3374 14.2304 16.5842 14.4031 16.8128 14.6045C17.0327 14.7981 17.1084 15.0521 16.9846 15.3148C16.7579 15.796 16.4282 16.1964 15.9525 16.4519C15.8181 16.524 15.6577 16.5473 15.5062 16.594C15.332 16.541 15.6577 16.5473 15.5062 16.594Z" fill="white"/>
<path d="M13.0457 7.5244C15.1355 7.58295 16.852 8.96985 17.2198 11.0359C17.2825 11.3879 17.3048 11.7479 17.3327 12.1052C17.3444 12.2555 17.2593 12.3983 17.0971 12.4002C16.9296 12.4022 16.8542 12.262 16.8433 12.1118C16.8218 11.8144 16.8069 11.5157 16.7659 11.2208C16.5496 9.66407 15.3082 8.37612 13.7586 8.09975C13.5255 8.05815 13.2868 8.04721 13.0506 8.02243C12.9013 8.00675 12.7058 7.99771 12.6727 7.81211C12.6449 7.65649 12.7763 7.53259 12.9244 7.52463C12.9647 7.5224 13.0053 7.52423 13.0457 7.5244C15.1355 7.58295 13.0053 7.52423 13.0457 7.5244Z" fill="white"/>
<path d="M16.2216 11.6414C16.2181 11.6675 16.2163 11.7289 16.201 11.7867C16.1456 11.9965 15.8275 12.0227 15.7542 11.811C15.7325 11.7482 15.7293 11.6767 15.7291 11.609C15.7284 11.1664 15.6322 10.7242 15.409 10.3391C15.1795 9.94329 14.829 9.61055 14.4178 9.40921C14.1692 9.28748 13.9004 9.21182 13.6279 9.16672C13.5088 9.14703 13.3884 9.13507 13.2687 9.11841C13.1237 9.09827 13.0463 9.00584 13.0532 8.86293C13.0596 8.72901 13.1574 8.63269 13.3034 8.64093C13.783 8.66817 14.2462 8.77182 14.6726 8.9976C15.5396 9.45677 16.0349 10.1815 16.1795 11.1493C16.186 11.1932 16.1965 11.2366 16.1999 11.2806C16.2081 11.3893 16.2132 11.4981 16.2216 11.6414C16.2181 11.6675 16.2132 11.4981 16.2216 11.6414Z" fill="white"/>
<path d="M14.9216 11.5908C14.7468 11.594 14.6532 11.4972 14.6352 11.3369C14.6227 11.2251 14.6128 11.1119 14.5861 11.0031C14.5335 10.7889 14.4197 10.5905 14.2395 10.4592C14.1545 10.3973 14.0581 10.3521 13.9572 10.323C13.8289 10.2859 13.6957 10.2961 13.5678 10.2648C13.4288 10.2307 13.3519 10.1182 13.3738 9.98782C13.3937 9.86918 13.5091 9.77658 13.6387 9.78596C14.449 9.84446 15.028 10.2633 15.1107 11.2172C15.1165 11.2845 15.1234 11.3556 15.1084 11.42C15.0829 11.5302 15.0012 11.5854 14.9216 11.5908C14.7468 11.594 15.0012 11.5854 14.9216 11.5908Z" fill="white"/>
</svg>
