<svg width="27" height="27" viewBox="0 0 27 27" fill="none" xmlns="http://www.w3.org/2000/svg">
<path d="M26.0823 -1.52588e-05H0V26.0822H26.0823V-1.52588e-05Z" fill="#2BCA4B"/>
<path d="M3.91992 22.1721L5.1975 17.6346C4.37594 16.2389 3.94339 14.6509 3.94339 13.0195C3.94339 7.99658 8.02984 3.91012 13.0528 3.91012C18.0757 3.91012 22.1621 7.99658 22.1621 13.0195C22.1621 18.0425 18.0757 22.1289 13.0528 22.1289C11.4877 22.1289 9.95512 21.7283 8.59936 20.9676L3.91992 22.1721ZM8.83858 19.3103L9.11742 19.4806C10.2995 20.2022 11.6603 20.5837 13.0528 20.5837C17.2237 20.5837 20.6169 17.1904 20.6169 13.0195C20.6169 8.84865 17.2237 5.45538 13.0528 5.45538C8.88191 5.45538 5.48864 8.84865 5.48864 13.0195C5.48864 14.4728 5.90168 15.8841 6.68301 17.1008L6.87079 17.3932L6.13507 20.0063L8.83858 19.3103Z" fill="white"/>
<path d="M10.4939 8.77973L9.90284 8.7475C9.71718 8.73737 9.53507 8.79941 9.39474 8.92132C9.10818 9.17016 8.64998 9.65125 8.50925 10.2782C8.29938 11.2129 8.62371 12.3576 9.46313 13.5022C10.3025 14.6468 11.8669 16.4782 14.633 17.2604C15.5244 17.5125 16.2256 17.3426 16.7666 16.9965C17.1951 16.7224 17.4905 16.2825 17.597 15.7851L17.6913 15.3443C17.7213 15.2042 17.6502 15.062 17.52 15.0021L15.5224 14.0813C15.3927 14.0215 15.2389 14.0593 15.1517 14.1723L14.3674 15.189C14.3082 15.2658 14.2068 15.2962 14.1152 15.2641C13.5781 15.0753 11.7791 14.3219 10.792 12.4204C10.7492 12.3379 10.7598 12.2378 10.8205 12.1675L11.5701 11.3004C11.6466 11.2119 11.666 11.0874 11.62 10.9798L10.7589 8.96521C10.713 8.85796 10.6103 8.78608 10.4939 8.77973Z" fill="white"/>
</svg>
